<?xml version="1.0" encoding="utf-8"?>
<svg width="48px" height="48px" viewBox="0 0 48 48" version="1.1" xmlns:xlink="http://www.w3.org/1999/xlink" xmlns="http://www.w3.org/2000/svg">
  <g id="brave">
    <path d="M0 24C0 10.7452 10.7452 0 24 0C37.2548 0 48 10.7452 48 24C48 37.2548 37.2548 48 24 48C10.7452 48 0 37.2548 0 24Z" id="Ellipse" fill="#FCD5D5" fill-rule="evenodd" stroke="none" />
    <path d="M8.34785 0C7.82611 0 6.00003 2.08696 5.73916 2.08696L4.43481 2.08696C3.91307 2.08696 2.08698 3.91304 2.08698 4.43478L2.08698 6C2.08698 6.26087 0.0115048 8.08696 2.68687e-05 8.6087C-0.0114511 9.13043 3.6522 21.3913 4.17394 21.913C4.69568 22.4348 10.4348 27.1304 12 27.1304L13.0435 27.1304C14.6087 27.1304 20.3479 22.4348 20.8696 21.913C21.3913 21.3913 25.0539 9.13043 25.0435 8.6087C25.032 8.09009 22.9566 6.26087 22.9566 6L22.9566 4.43478C22.9566 3.91304 21.1305 2.08696 20.6087 2.08696L19.3044 2.08696C19.0435 2.08696 17.2174 0 16.6957 0L8.34785 0L8.34785 0Z" transform="translate(11.478234 10.434782)" id="Shape" fill="#353130" fill-rule="evenodd" stroke="none" />
    <g id="Group" transform="translate(14.608696 14.0786085)">
      <path d="M3.3913 0C2.34783 0 0 1.61739 0 1.93043C0 2.24348 2.34783 4.8 3.3913 4.8C4.43478 4.8 6.78261 2.24348 6.78261 1.93043C6.78261 1.61739 4.43478 0 3.3913 0L3.3913 0Z" transform="translate(6 12.42574)" id="Shape-path" fill="#FCD5D5" fill-rule="evenodd" stroke="none" />
      <path d="M9.3913 0C8.87165 0 8.35409 0.178435 7.82609 0.530087C6.26087 1.57357 4.17391 0.00834822 3.65217 0.00834822C3.13043 0.00834822 0 3.80974 0 5.22574C0 6.26922 3.91304 8.66922 3.91304 9.39965C3.91304 9.92139 3.13043 10.1718 3.13043 11.279C3.13043 12.0083 4.17391 13.3127 5.21739 13.3127C6.26087 13.3127 8.87165 11.2643 8.86957 10.7572L8.86957 10.4431C8.86957 9.81704 6.52174 9.02818 6.52174 7.83443C6.52174 6.79096 7.30435 6.40487 7.30435 5.22574C7.30435 4.21148 5.21739 3.92139 3.65217 3.66052C3.13043 3.66052 5.21739 1.944 8.08696 3.7993C8.81322 4.26887 7.30435 6.12522 7.56522 7.83443C7.95652 8.19965 8.67443 8.38226 9.3913 8.38226C10.1092 8.38226 10.8261 8.19965 11.2174 7.83443C11.4783 6.12522 9.96939 4.26887 10.6957 3.7993C13.5652 1.944 15.6522 3.66052 15.1304 3.66052C13.5652 3.92139 11.4783 4.21148 11.4783 5.22574C11.4783 6.40487 12.2609 6.79096 12.2609 7.83443C12.2609 9.02818 9.91304 9.81704 9.91304 10.4431L9.91304 10.7572C9.91096 11.2643 12.5217 13.3127 13.5652 13.3127C14.6087 13.3127 15.6522 12.0083 15.6522 11.279C15.6522 10.1729 14.8696 9.92139 14.8696 9.39965C14.8696 8.66922 18.7826 6.26922 18.7826 5.22574C18.7826 3.80974 15.6522 0.00834822 15.1304 0.00834822C14.6087 0.00834822 12.5217 1.57357 10.9565 0.530087C10.4285 0.178435 9.91304 0 9.3913 0L9.3913 0Z" id="Shape-path" fill="#FCD5D5" fill-rule="evenodd" stroke="none" />
    </g>
  </g>
</svg>