<?xml version="1.0" encoding="utf-8"?>
<svg width="48px" height="48px" viewBox="0 0 48 48" version="1.1" xmlns:xlink="http://www.w3.org/1999/xlink" xmlns="http://www.w3.org/2000/svg">
  <g id="chromium">
    <path d="M0 24C0 10.7452 10.7452 0 24 0C37.2548 0 48 10.7452 48 24C48 37.2548 37.2548 48 24 48C10.7452 48 0 37.2548 0 24Z" id="Ellipse" fill="#FCD5D5" fill-rule="evenodd" stroke="none" />
    <g id="Group" transform="translate(12.218018 12.21817)">
      <path d="M11.7818 11.9037C10.6036 11.9037 9.50673 11.5787 8.53165 10.9286C7.55661 10.2786 6.82531 9.46609 6.33779 8.45042L1.46256 0C0.446881 1.82821 2.63344e-07 3.81892 2.63344e-07 5.89091C2.63344e-07 8.85666 0.975038 11.4162 2.88452 13.61C4.794 15.8039 7.19096 17.1039 10.0349 17.5509L13.4476 11.6193C13.1225 11.7412 12.5131 11.9037 11.7818 11.9037" transform="translate(0 5.8908997)" id="Shape" fill="#353130" fill-rule="evenodd" stroke="none" />
      <path d="M5.60653 6.90659C6.70344 6.05342 7.92226 5.68777 9.30359 5.68777L19.4197 5.68777C18.3634 3.9002 16.9415 2.6001 15.1539 1.58442C13.3663 0.528157 11.4162 0 9.30359 0C7.47538 0 5.7284 0.406289 4.14398 1.17818C2.55955 1.95008 1.05631 3.08767 0 4.55022L3.41268 10.1568C3.73769 8.85666 4.50958 7.75975 5.60653 6.90659" transform="translate(2.4781494 0)" id="Shape" fill="#353130" fill-rule="evenodd" stroke="none" />
      <path d="M10.7661 0L3.94083 0C5.11902 1.17818 5.93155 2.72201 5.93155 4.42835C5.93155 5.68781 5.5659 6.82535 4.87523 7.88162L0 16.2102C3.20953 16.1695 5.97219 15.032 8.24727 12.7163C10.5224 10.4005 11.6599 7.63789 11.6599 4.42835C11.6599 2.92516 11.4162 1.34069 10.7661 0" transform="translate(11.903687 7.3534546)" id="Shape" fill="#353130" fill-rule="evenodd" stroke="none" />
      <path d="M4.46895 0C6.90659 0 8.93789 2.03135 8.93789 4.46895C8.93789 6.90654 6.90659 8.93789 4.46895 8.93789C2.03131 8.93789 0 6.90659 0 4.46895C0 2.03131 2.03131 0 4.46895 0" transform="translate(7.312866 7.312866)" id="Shape" fill="#353130" fill-rule="evenodd" stroke="none" />
    </g>
  </g>
</svg>