<?xml version="1.0" encoding="utf-8"?>
<svg width="48px" height="48px" viewBox="0 0 48 48" version="1.1" xmlns:xlink="http://www.w3.org/1999/xlink" xmlns="http://www.w3.org/2000/svg">
  <g id="distributor-logo-windows">
    <path d="M0 24C0 10.7447 10.7447 0 24 0C37.2553 0 48 10.7447 48 24C48 37.2553 37.2553 48 24 48C10.7447 48 0 37.2553 0 24L0 24Z" id="Shape" fill="#FCD5D5" fill-rule="evenodd" stroke="none" />
    <path d="M9.39131 0L9.39131 9.3913L0 9.3913L0 0" transform="translate(25.043478 13.565217)" id="Shape" fill="#353130" fill-rule="evenodd" stroke="none" />
    <path d="M0 0L9.3913 0L9.3913 9.3913L0 9.3913" transform="translate(13.565217 13.565217)" id="Shape" fill="#353130" fill-rule="evenodd" stroke="none" />
    <path d="M9.3913 0L9.3913 9.3913L0 9.3913L0 0" transform="translate(13.565217 25.064348)" id="Shape" fill="#353130" fill-rule="evenodd" stroke="none" />
    <path d="M0 0L9.3913 0L9.3913 9.3913L0 9.3913" transform="translate(25.064348 25.064348)" id="Shape" fill="#353130" fill-rule="evenodd" stroke="none" />
  </g>
</svg>