<?xml version="1.0" encoding="utf-8"?>
<svg width="48px" height="48px" viewBox="0 0 48 48" version="1.1" xmlns:xlink="http://www.w3.org/1999/xlink" xmlns="http://www.w3.org/2000/svg">
  <g id="distributor-logo-debian">
    <path d="M0 24C0 10.7452 10.7452 0 24 0C37.2548 0 48 10.7452 48 24C48 37.2548 37.2548 48 24 48C10.7452 48 0 37.2548 0 24Z" id="Circle" fill="#FCD5D5" fill-rule="evenodd" stroke="none" />
    <g id="Group" transform="translate(13.565218 11.485565)">
      <path d="M0.160989 0.158387C-0.27101 0.170808 0.24238 0.788818 0.804816 1.04348C0.959252 0.692544 1.09803 0.338512 1.22429 0C0.873686 0.242233 0.518903 0.25466 0.159947 0.158387" transform="translate(12.3086195 13.174955)" id="Shape" fill="#353130" fill-rule="evenodd" stroke="none" />
      <path d="M0.374013 1.10087C0.705958 0.75861 0.962586 0.387131 1.04348 0C0.966768 0.27339 0.760351 0.513392 0.563695 0.761739C-0.514425 1.25113 0.460486 0.472695 0.563695 0.178434C-0.596713 1.22191 0.400512 0.806608 0.36146 1.09983" transform="translate(14.503178 11.57426)" id="Shape" fill="#353130" fill-rule="evenodd" stroke="none" />
      <path d="M1.00954 0.872558C1.23023 -0.43259 0.314597 -0.0182299 0 0.4801C0.366246 0.543988 0.662071 1.40009 1.00954 0.872558" transform="translate(15.408044 10.037203)" id="Shape" fill="#353130" fill-rule="evenodd" stroke="none" />
      <path d="M0 0C0.385964 0.347823 0.825582 0.58863 0.763275 1.04348C1.18213 0.58863 1.27732 0.169455 0 0" transform="translate(10.835522 0.31930447)" id="Shape" fill="#353130" fill-rule="evenodd" stroke="none" />
      <path d="M1.03684 0.028997L0 1.04348L0.963727 0.579719L1.04348 0" transform="translate(11.132913 0.44034672)" id="Shape" fill="#353130" fill-rule="evenodd" stroke="none" />
      <path d="M18.313 10.6456C18.3412 11.3186 18.1096 11.6442 17.905 12.2191L17.5346 12.3986C17.2289 12.9694 17.5628 12.7617 17.3426 13.2136C16.8699 13.6216 15.9036 14.4897 15.5937 14.567C15.3652 14.5628 15.745 14.3103 15.793 14.2122C15.1576 14.6317 15.2838 14.8435 14.3092 15.1012L14.281 15.0397C11.8842 16.128 8.55025 13.9722 8.59512 11.0285C8.56695 11.2164 8.52208 11.1673 8.46886 11.2445C8.3426 9.72835 9.19408 8.208 10.6247 7.58818C12.0271 6.91931 13.6696 7.1927 14.6723 8.09322C14.1224 7.40035 13.0257 6.66261 11.7256 6.73148C10.4494 6.74818 9.25982 7.53079 8.86016 8.37391C8.20799 8.76939 8.13495 9.90261 7.84903 10.1061C7.46608 12.817 8.56695 13.991 10.4337 15.3652C10.7269 15.553 10.5151 15.5812 10.5558 15.7283C9.93599 15.4466 9.36521 15.0271 8.90086 14.5096C9.14921 14.8602 9.41425 15.1983 9.76069 15.4675C9.17738 15.2755 8.39477 14.1016 8.16729 14.0536C9.17425 15.7941 12.2515 17.1026 13.8657 16.4504C13.1196 16.4786 12.1701 16.4671 11.3342 16.1687C10.9795 15.9934 10.5026 15.6303 10.5882 15.5656C12.7847 16.3565 15.0595 16.1645 16.9628 14.6932C17.4438 14.3301 17.9739 13.7113 18.1283 13.703C17.8883 14.0369 18.1649 13.8616 17.9896 14.16C18.4706 13.4097 17.7819 13.8543 18.4873 12.864L18.7523 13.2104C18.6542 12.5864 19.5516 11.833 19.4619 10.8459C19.6696 10.5443 19.6904 11.1725 19.4744 11.8654C19.776 11.0953 19.5516 10.9732 19.6289 10.3367C19.7144 10.5527 19.825 10.777 19.8814 11.0014C19.6852 10.2595 20.0849 9.75026 20.1829 9.32243C20.0849 9.27757 19.8772 9.64904 19.8323 8.77252C19.8365 8.38956 19.9419 8.57635 19.9795 8.4793C19.9023 8.43443 19.6977 8.1527 19.5756 7.59026C19.6654 7.45983 19.8156 7.93252 19.9388 7.95339C19.8616 7.50887 19.7228 7.16661 19.7186 6.82435C19.3596 6.10643 19.5923 6.92243 19.3033 6.51861C18.9245 5.37287 19.6174 6.25356 19.6664 5.73183C20.2414 6.53844 20.5711 7.78226 20.7224 8.29983C20.6087 7.67165 20.4209 7.06017 20.1923 6.46957C20.3676 6.54261 19.9106 5.17774 20.4209 6.08244C19.8783 4.14991 18.0939 2.34887 16.4546 1.5047C16.6539 1.68 16.9075 1.90435 16.8177 1.9367C16.0028 1.47235 16.1447 1.43583 16.0268 1.23548C15.3621 0.974609 15.3172 1.25635 14.8769 1.23548C13.6257 0.595826 13.3847 0.664696 12.2316 0.253565L12.2849 0.493565C11.4532 0.228522 11.3186 0.595825 10.4181 0.493565C10.3649 0.45287 10.7071 0.34226 10.9889 0.301565C10.1854 0.408 10.223 0.15026 9.44035 0.329739C9.63235 0.199304 9.83582 0.113739 10.0435 0C9.38713 0.0406952 8.48243 0.370434 8.76313 0.0688695C7.69565 0.529043 5.79965 1.17391 4.73635 2.13496L4.69983 1.91896C4.21461 2.48139 2.57635 3.60209 2.44591 4.33565L2.31548 4.36383C2.06296 4.776 1.896 5.24452 1.69565 5.67235C1.36591 6.21809 1.21043 5.88 1.2553 5.96557C0.603131 7.24174 0.280696 8.31339 0 9.19409C0.199304 9.47896 0.00417361 10.9263 0.0813914 12.0803C-0.248348 17.7871 4.23444 23.3217 9.13043 24.6021C9.85148 24.8504 10.9158 24.8421 11.8247 24.8671C10.7572 24.5697 10.6143 24.7085 9.57078 24.3579C8.82052 24.0157 8.65357 23.6285 8.1193 23.1798L8.33113 23.5388C7.28765 23.184 7.72382 23.0984 6.87235 22.8376L7.10087 22.5558C6.76278 22.5318 6.20035 22.0059 6.04695 21.7117L5.67652 21.7283C5.232 21.1941 4.992 20.8153 5.01183 20.5179L4.88974 20.7256C4.75513 20.497 3.25148 18.7367 4.03409 19.1478C3.88696 19.0174 3.696 18.9402 3.48417 18.5729L3.64278 18.3976C3.26817 17.9332 2.95409 17.3332 2.97809 17.1381C3.17739 17.399 3.31617 17.4438 3.45496 17.4887C2.50539 15.2223 2.45217 17.3666 1.73531 15.1816L1.88661 15.169C1.77287 15.0021 1.70296 14.8184 1.60487 14.639L1.67374 14.0035C0.989218 13.2417 1.48174 10.7666 1.57983 9.41427C1.6487 8.86018 2.15061 8.2727 2.52939 7.35131L2.2967 7.31479C2.74122 6.5687 4.83235 4.31479 5.79444 4.42853C6.26296 3.86192 5.70052 4.42853 5.61078 4.28557C6.63757 3.25462 6.96418 3.55618 7.66122 3.37253C8.41983 2.9447 7.01739 3.53948 7.37948 3.20975C8.66713 2.89148 8.2967 2.48453 9.98817 2.3207C10.1677 2.41879 9.57287 2.47201 9.42574 2.59827C10.5057 2.08905 12.8379 2.20696 14.3583 2.88314C16.1228 3.67827 18.1002 6.024 18.1774 8.23096L18.2671 8.25183C18.2223 9.1367 18.4059 10.1468 18.0877 11.0765L18.3037 10.6362" transform="translate(0.14405155 0.16904259)" id="Shape" fill="#353130" fill-rule="evenodd" stroke="none" />
      <path d="M0.0739966 0L0 0.289044C0.338629 0.659478 0.607022 1.06331 1.04348 1.35339C0.729933 0.864001 0.499164 0.660523 0.0739966 0" transform="translate(7.7082176 13.802086)" id="Shape" fill="#353130" fill-rule="evenodd" stroke="none" />
      <path d="M0.746329 0.617303C0.421535 0.43686 0.223439 0.21843 0 0C0.216528 0.379878 0.638067 0.709897 1.04348 1.04348L0.746329 0.617303" transform="translate(8.100567 13.228174)" id="Shape" fill="#353130" fill-rule="evenodd" stroke="none" />
      <path d="M1.04348 0.00313071L0.959413 0.154436C0.808631 0.949565 0.489714 1.73635 0 2.46574C0.541751 1.69565 0.891357 0.855654 1.0368 0" transform="translate(19.459867 11.288346)" id="Shape" fill="#353130" fill-rule="evenodd" stroke="none" />
      <path d="M0.171132 1.03463C0.46435 0.168018 0.889045 0.58364 1.19791 0C0.794089 0.274135 0.394435 0.450992 0 0.866614L0.17113 1.04348" transform="translate(10.749956 0)" id="Shape" fill="#353130" fill-rule="evenodd" stroke="none" />
      <path d="M0.432443 0C0.608922 0.988907 -0.825327 1.3731 0.737782 0.720144C1.58096 -0.403146 0.410035 0.410033 0.432443 0" transform="translate(0.54539394 5.360347)" id="Shape" fill="#353130" fill-rule="evenodd" stroke="none" />
      <path d="M0.080821 1.04348C0.711529 0.563128 0.820597 0.274665 1.04348 0C-0.639984 0.54933 0.265767 0.665969 0.080821 1.04348" transform="translate(0 7.26052)" id="Shape" fill="#353130" fill-rule="evenodd" stroke="none" />
    </g>
  </g>
</svg>