<?xml version="1.0" encoding="utf-8"?>
<svg width="48px" height="48px" viewBox="0 0 48 48" version="1.1" xmlns:xlink="http://www.w3.org/1999/xlink" xmlns="http://www.w3.org/2000/svg">
  <g id="distributor-logo-android">
    <path d="M24 0C37.2553 0 48 10.7447 48 24C48 37.2553 37.2553 48 24 48C10.7447 48 0 37.2553 0 24C0 10.7447 10.7447 0 24 0L24 0Z" id="Shape" fill="#FCD5D5" fill-rule="evenodd" stroke="none" />
    <path d="M6.56348 0.0013504C6.32452 0.0117854 6.18365 0.273698 6.30678 0.47822L7.29496 2.17805C5.34052 3.34883 4.176 5.26257 4.17496 7.3057L18.7837 7.3057C18.7795 5.26361 17.6139 3.35092 15.6595 2.18222L16.6518 0.47822C16.776 0.269524 16.6278 0.00448111 16.3847 0.0013504C16.2689 -0.000736402 16.1624 0.0618717 16.105 0.162046L15.1044 1.87961C14.0014 1.33492 12.7513 1.04483 11.4783 1.04379C10.2052 1.04274 8.95409 1.33179 7.85009 1.87544L6.85148 0.161003C6.79304 0.0566552 6.68139 -0.00491001 6.56244 0.000307498M7.82609 4.17422C8.11409 4.17422 8.34783 4.40796 8.34783 4.69596C8.34783 4.98396 8.11409 5.2177 7.82609 5.2177C7.53809 5.2177 7.30435 4.98396 7.30435 4.69596C7.30435 4.40796 7.53809 4.17422 7.82609 4.17422M15.1304 4.17422C15.4184 4.17422 15.6522 4.40796 15.6522 4.69596C15.6522 4.98396 15.4184 5.2177 15.1304 5.2177C14.8424 5.2177 14.6087 4.98396 14.6087 4.69596C14.6087 4.40796 14.8424 4.17422 15.1304 4.17422M1.56522 8.34813C0.698087 8.34813 0 9.04622 0 9.91335L0 17.2177C0 18.0848 0.698087 18.7829 1.56522 18.7829C2.43235 18.7829 3.13043 18.0848 3.13043 17.2177L3.13043 9.91335C3.13043 9.04622 2.43235 8.34813 1.56522 8.34813M4.17391 8.34813L4.17391 19.8264C4.17391 20.9826 5.1047 21.9133 6.26087 21.9133L7.30435 21.9133L7.30435 25.5655C7.30435 26.4327 8.00244 27.1307 8.86957 27.1307C9.7367 27.1307 10.4348 26.4327 10.4348 25.5655L10.4348 21.9133L12.5217 21.9133L12.5217 25.5655C12.5217 26.4327 13.2198 27.1307 14.087 27.1307C14.9541 27.1307 15.6522 26.4327 15.6522 25.5655L15.6522 21.9133L16.6957 21.9133C17.8518 21.9133 18.7826 20.9826 18.7826 19.8264L18.7826 8.34813L4.17391 8.34813ZM21.3913 8.34813C20.5242 8.34813 19.8261 9.04622 19.8261 9.91335L19.8261 17.2177C19.8261 18.0848 20.5242 18.7829 21.3913 18.7829C22.2584 18.7829 22.9565 18.0848 22.9565 17.2177L22.9565 9.91335C22.9565 9.04622 22.2584 8.34813 21.3913 8.34813" transform="translate(12.520696 10.433433)" id="Shape" fill="#353130" fill-rule="evenodd" stroke="none" />
  </g>
</svg>