<?xml version="1.0" encoding="utf-8"?>
<svg width="48px" height="48px" viewBox="0 0 48 48" version="1.1" xmlns:xlink="http://www.w3.org/1999/xlink" xmlns="http://www.w3.org/2000/svg">
  <g id="distributor-logo-arch">
    <path d="M0 24C0 10.7452 10.7452 0 24 0C37.2548 0 48 10.7452 48 24C48 37.2548 37.2548 48 24 48C10.7452 48 0 37.2548 0 24Z" id="Ellipse" fill="#FCD5D5" fill-rule="evenodd" stroke="none" />
    <path d="M13.9948 0C12.7485 3.05549 11.9968 5.05415 10.6093 8.01881C11.46 8.9206 12.5043 9.97077 14.2001 11.1568C12.3769 10.4066 11.1332 9.65338 10.2039 8.87177C8.42807 12.5772 5.64591 17.8555 0 28C4.43749 25.4382 7.87735 23.8588 11.0831 23.2561C10.9455 22.6641 10.8672 22.0236 10.8725 21.3554L10.8778 21.2133C10.9482 18.3703 12.4271 16.184 14.1791 16.3325C15.931 16.4809 17.2927 18.9073 17.2223 21.7503C17.2091 22.2853 17.1487 22.7999 17.0433 23.2772C20.2143 23.8975 23.6173 25.4729 27.9948 28C27.1316 26.4109 26.3612 24.9785 25.6255 23.6142C24.4666 22.7159 23.2578 21.5469 20.7921 20.2813C22.4869 20.7217 23.7003 21.2298 24.6461 21.7977C17.1657 7.87045 16.56 6.0198 13.9948 0L13.9948 0Z" transform="translate(10 9)" id="path2518" fill="#353130" fill-rule="evenodd" stroke="none" />
  </g>
</svg>