<?xml version="1.0" encoding="utf-8"?>
<svg width="48px" height="48px" viewBox="0 0 48 48" version="1.1" xmlns:xlink="http://www.w3.org/1999/xlink" xmlns="http://www.w3.org/2000/svg">
  <g id="distributor-logo-fedora">
    <path d="M24 0C37.2553 0 48 10.7447 48 24C48 37.2553 37.2553 48 24 48C10.7447 48 0 37.2553 0 24C0 10.7447 10.7447 0 24 0L24 0Z" id="Shape" fill="#FCD5D5" fill-rule="evenodd" stroke="none" />
    <g id="Group" transform="translate(10 10)">
      <path d="M14 0C6.28861 0 0 6.30915 0 14L0 24.2667C0 26.3349 1.66507 28 3.73333 28L14 28C21.732 28 28 21.732 28 14C28 6.26799 21.7114 0 14 0L14 0Z" id="Shape" fill="#353130" fill-rule="evenodd" stroke="none" />
      <path d="M13.0667 0C10.4893 0 8.4 2.08934 8.4 4.66667L8.4 14C8.4 15.5464 7.1464 16.8 5.6 16.8C4.0536 16.8 2.8 15.5464 2.8 14C2.8 12.4536 4.0536 11.2 5.6 11.2L7.46667 11.2L7.46667 8.4L5.6 8.4C2.5072 8.4 0 10.9072 0 14C0 17.0928 2.5072 19.6 5.6 19.6C8.69279 19.6 11.2 17.0928 11.2 14L11.2 11.2L13.5333 11.2C14.3089 11.2 14.9333 10.5756 14.9333 9.8C14.9333 9.0244 14.3089 8.4 13.5333 8.4L11.2 8.4L11.2 4.66667C11.2 3.63573 12.0357 2.8 13.0667 2.8C14.0976 2.8 14.9333 3.63573 14.9333 4.66667L14.9333 5.13333C14.9333 5.90653 15.5601 6.53333 16.3333 6.53333C17.1065 6.53333 17.7333 5.90653 17.7333 5.13333L17.7333 4.66667C17.7333 2.08934 15.644 0 13.0667 0L13.0667 0Z" transform="translate(3.7333336 4.666666)" id="Shape" fill="#FCD5D5" fill-rule="evenodd" stroke="none" />
    </g>
  </g>
</svg>