<?xml version="1.0" encoding="utf-8"?>
<svg width="48px" height="48px" viewBox="0 0 48 48" version="1.1" xmlns:xlink="http://www.w3.org/1999/xlink" xmlns="http://www.w3.org/2000/svg">
  <g id="distributor-logo-ubuntu">
    <path d="M0 24C0 10.7452 10.7452 0 24 0C37.2548 0 48 10.7452 48 24C48 37.2548 37.2548 48 24 48C10.7452 48 0 37.2548 0 24Z" id="Ellipse" fill="#FCD5D5" fill-rule="evenodd" stroke="none" />
    <path d="M24 12.0001C24 18.6272 18.6273 23.9999 11.9998 23.9999C5.37239 23.9999 0 18.6272 0 12.0001C0 5.37247 5.37239 0 11.9998 0C18.6273 0 24 5.37247 24 12.0001" transform="translate(12 12)" id="roundel" fill="#353130" fill-rule="evenodd" stroke="none" />
    <path d="M13.0409 2.98898C13.8071 3.43148 14.7866 3.16901 15.2288 2.40301C15.6712 1.63671 15.409 0.657268 14.6427 0.214847C13.8765 -0.227419 12.8971 0.0349703 12.4546 0.801279C12.0124 1.56728 12.2748 2.54672 13.0409 2.98898L13.0409 2.98898ZM9.76198 13.3486C9.05748 13.3486 8.38985 13.192 7.79055 12.9132L6.67734 14.9081C7.60722 15.3685 8.65407 15.6287 9.76198 15.6287C10.4063 15.6287 11.0293 15.5394 11.6213 15.3755C11.7261 14.732 12.1082 14.1389 12.7173 13.7872C13.3254 13.4361 14.0291 13.4013 14.6382 13.6316C15.8229 12.4667 16.5937 10.8819 16.7059 9.11699L14.4226 9.08374C14.2125 11.4744 12.2069 13.3486 9.76198 13.3486L9.76198 13.3486ZM9.76198 3.98866C12.2069 3.98866 14.2125 5.86326 14.4226 8.25362L16.7059 8.22029C16.5935 6.45554 15.8227 4.87074 14.6379 3.70596C14.0289 3.93602 13.3252 3.90115 12.7171 3.55002C12.108 3.19842 11.726 2.60545 11.6213 1.9619C11.0293 1.79811 10.4063 1.70875 9.76198 1.70875C8.65407 1.70875 7.60729 1.96883 6.67749 2.42942L7.79064 4.42408C8.38984 4.1453 9.05748 3.98867 9.76198 3.98867L9.76198 3.98866ZM5.08206 8.66864C5.08206 7.0853 5.8689 5.68684 7.07202 4.84002L5.90077 2.87791C4.49876 3.81471 3.45575 5.24665 3.02258 6.92397C3.52864 7.33645 3.85199 7.9646 3.85199 8.66879C3.85199 9.37291 3.52857 10.0011 3.02249 10.4135C3.4556 12.0909 4.49863 13.5228 5.9007 14.4596L7.07202 12.4974C5.8689 11.6507 5.08206 10.2522 5.08206 8.66864L5.08206 8.66864ZM13.0411 14.3482C12.2748 14.7906 12.0124 15.77 12.4548 16.536C12.8972 17.3023 13.8765 17.5649 14.6428 17.1224C15.4089 16.6801 15.6714 15.7007 15.229 14.9344C14.7867 14.1685 13.8072 13.906 13.0411 14.3482L13.0411 14.3482ZM1.60214 7.06675C0.717128 7.06675 0 7.7838 0 8.6688C0 9.55356 0.717128 10.2707 1.60214 10.2707C2.48681 10.2707 3.20403 9.55356 3.20403 8.6688C3.20403 7.7838 2.48681 7.06675 1.60214 7.06675" transform="translate(14.238037 15.331295)" id="circle-of-friends" fill="#FCD5D5" fill-rule="evenodd" stroke="none" />
  </g>
</svg>