<?xml version="1.0" encoding="utf-8"?>
<svg width="48px" height="48px" viewBox="0 0 48 48" version="1.1" xmlns:xlink="http://www.w3.org/1999/xlink" xmlns="http://www.w3.org/2000/svg">
  <g id="opera">
    <path d="M0 24C0 10.7452 10.7452 0 24 0C37.2548 0 48 10.7452 48 24C48 37.2548 37.2548 48 24 48C10.7452 48 0 37.2548 0 24Z" id="Ellipse" fill="#FCD5D5" fill-rule="evenodd" stroke="none" />
    <g id="Opera_GX_Icon" transform="translate(12 12.220001)">
      <path d="M18.9154 19.8098C17.6601 20.6381 16.225 21.0771 14.7613 21.0771C12.3653 21.0771 10.0937 19.9049 8.52867 17.8612C8.52308 17.8542 8.51778 17.8478 8.5122 17.8407C7.31186 16.416 6.59499 14.3229 6.54557 12.111L6.54529 11.5919C6.59498 9.36693 7.31183 7.27402 8.52838 5.82898C10.0936 3.78529 12.3656 2.61313 14.7614 2.61313C16.2253 2.61313 17.6607 3.05213 18.9168 3.88099C21.1581 5.91289 22.4436 8.81271 22.4436 11.8453C22.4436 14.8781 21.1578 17.7782 18.916 19.81M11.2719 22.5545C5.57777 22.2859 1.11694 17.5819 1.11694 11.8451C1.11694 5.93312 5.90043 1.12302 11.7907 1.12302C11.7933 1.12302 11.8175 1.1233 11.8203 1.1233C12.753 1.12667 13.6725 1.2527 14.558 1.49268C11.8887 1.55668 9.37891 2.879 7.66034 5.12366C6.29782 6.74072 5.48464 9.08923 5.42936 11.579L5.42936 12.1233C5.48463 14.595 6.29446 16.9391 7.65195 18.5565C9.38604 20.815 11.8933 22.1334 14.5586 22.1974C13.4989 22.4848 12.3745 22.6072 11.2716 22.5544M19.6314 3.01545C17.4825 1.08207 14.7099 0.0115354 11.812 0.000561391C11.8084 0.000280704 11.7835 0 11.7802 0C5.28469 0 7.81012e-07 5.31376 7.81012e-07 11.8449C7.81012e-07 18.1823 4.92804 23.3794 11.22 23.6759C11.4057 23.6846 11.5924 23.6893 11.7803 23.6893C14.6801 23.6893 17.4675 22.6196 19.6279 20.6767L19.6304 20.675C22.1277 18.429 23.56 15.2106 23.56 11.8447C23.56 8.47925 22.1279 5.26073 19.6312 3.01517" id="Shape" fill="#353130" fill-rule="evenodd" stroke="none" />
      <path d="M0 0C2.10155 1.35696 3.54855 4.19426 3.54855 7.47661C3.54855 10.7589 2.10155 13.5966 0 14.9532C2.68256 14.7297 4.81134 11.4682 4.81134 7.47661C4.81134 3.48496 2.68247 0.223574 0 3.90506e-07" transform="translate(13.938721 4.383606)" id="Shape" fill="#353130" fill-rule="evenodd" stroke="none" />
    </g>
  </g>
</svg>