<?xml version="1.0" encoding="utf-8"?>
<svg width="48px" height="48px" viewBox="0 0 48 48" version="1.1" xmlns:xlink="http://www.w3.org/1999/xlink" xmlns="http://www.w3.org/2000/svg">
  <g id="preferences-system">
    <path d="M0 24C0 10.7452 10.7452 0 24 0C37.2548 0 48 10.7452 48 24C48 37.2548 37.2548 48 24 48C10.7452 48 0 37.2548 0 24Z" id="Ellipse" fill="#FCD5D5" fill-rule="evenodd" stroke="none" />
    <path d="M7.81199 2.80857C7.81199 1.2548 9.08418 6.01811e-07 10.6419 6.01811e-07L12.9181 6.01811e-07C14.4786 6.01811e-07 15.748 1.25255 15.748 2.80857L15.748 3.57536C16.368 3.83831 16.9589 4.16524 17.511 4.55082L18.1796 4.17051C19.5292 3.40203 21.2563 3.85807 22.0383 5.19252L23.177 7.13558C23.9656 8.48181 23.4967 10.2039 22.1353 10.9779L21.543 11.3151C21.6169 11.9966 21.6169 12.6842 21.543 13.3658L22.1353 13.7024C23.4961 14.4765 23.9656 16.1985 23.1764 17.5453L22.0377 19.4884C21.2563 20.8234 19.5292 21.2783 18.1796 20.5104L17.511 20.1301C16.9589 20.5156 16.368 20.8426 15.748 21.1055L15.748 21.8723C15.748 23.4261 14.4758 24.6809 12.9181 24.6809L10.6419 24.6809C9.08137 24.6809 7.81199 23.4283 7.81199 21.8723L7.81199 20.9653C7.25433 20.7047 6.72279 20.3916 6.22456 20.0302L5.38036 20.5104C4.03077 21.2788 2.30367 20.8228 1.52173 19.4884L0.383045 17.5453C-0.405621 16.1991 0.0633157 14.477 1.42469 13.7029L2.31601 13.1959C2.26466 12.6267 2.26466 12.0541 2.31601 11.485L1.42469 10.9785C0.0638766 10.2044 -0.405621 8.48237 0.383606 7.13558L1.52229 5.19252C2.30367 3.85751 4.03077 3.4026 5.38036 4.17051L6.22456 4.65066C6.72278 4.28923 7.25433 3.97613 7.81199 3.71559L7.81199 2.80857L7.81199 2.80857ZM10.0557 4.46225C10.0557 4.9312 9.76377 5.35081 9.32388 5.51392C8.49513 5.8208 7.72769 6.27289 7.05754 6.849C6.69829 7.15824 6.18344 7.20831 5.77133 6.97409L4.27085 6.12035C3.98534 5.95768 3.61681 6.05529 3.4575 6.32678L2.31938 8.26983C2.16456 8.53403 2.25599 8.87003 2.53421 9.02821L4.08181 9.90887C4.49417 10.1436 4.71428 10.6123 4.63153 11.0795C4.48367 11.9137 4.48367 12.7673 4.63153 13.6015C4.71454 14.0689 4.49439 14.5379 4.08181 14.7727L2.53421 15.6528C2.25599 15.811 2.16456 16.147 2.31938 16.4112L3.45806 18.3542C3.6168 18.6257 3.98533 18.7227 4.27141 18.5606L5.77133 17.7069C6.18333 17.4725 6.69816 17.5224 7.05754 17.8314C7.72764 18.4075 8.49502 18.8596 9.3237 19.1664C9.76381 19.3295 10.0559 19.7494 10.0557 20.2187L10.0557 21.8724C10.0557 22.1826 10.3137 22.4372 10.6419 22.4372L12.9181 22.4372C13.2435 22.4372 13.5043 22.1797 13.5043 21.8724L13.5043 20.3287C13.5046 19.8434 13.817 19.4134 14.2783 19.2629C15.1647 18.973 15.9886 18.519 16.7072 17.9245C17.0664 17.6274 17.572 17.5834 17.9771 17.814L19.2892 18.5601C19.5747 18.7227 19.9432 18.6257 20.1025 18.3542L21.2406 16.4112C21.3954 16.147 21.304 15.811 21.0258 15.6528L19.7637 14.9348C19.344 14.696 19.1241 14.2154 19.2179 13.7417C19.3082 13.284 19.3542 12.8156 19.3542 12.3405C19.3542 11.8654 19.3082 11.397 19.2179 10.9393C19.1241 10.4656 19.344 9.98498 19.7637 9.7462L21.0258 9.02821C21.304 8.87003 21.3954 8.53403 21.2406 8.26984L20.1019 6.32678C19.9432 6.05529 19.5747 5.95825 19.2886 6.12036L17.9771 6.86639C17.5722 7.09689 17.067 7.05313 16.7078 6.75645C15.9888 6.16208 15.1645 5.70825 14.2778 5.41863C13.8165 5.26793 13.5043 4.83765 13.5043 4.35231L13.5043 2.80863C13.5043 2.49844 13.2463 2.24377 12.9181 2.24377L10.6419 2.24377C10.3165 2.24377 10.0557 2.50124 10.0557 2.80863L10.0557 4.46225L10.0557 4.46225ZM11.78 16.267C10.3772 16.267 9.08094 15.5186 8.37954 14.3038C7.67813 13.0889 7.67813 11.5921 8.37954 10.3773C9.08094 9.16239 10.3772 8.414 11.78 8.414C13.9478 8.4151 15.7045 10.1728 15.7045 12.3406C15.7045 14.5084 13.9476 16.266 11.7798 16.267L11.78 16.267ZM11.78 14.0232C12.7094 14.0232 13.4628 13.2698 13.4628 12.3404C13.4628 11.4111 12.7094 10.6577 11.78 10.6577C10.8506 10.6577 10.0972 11.4111 10.0972 12.3404C10.0972 13.2698 10.8506 14.0232 11.78 14.0232L11.78 14.0232Z" transform="translate(12 11)" id="Shape" fill="#353130" fill-rule="evenodd" stroke="none" />
  </g>
</svg>