<?xml version="1.0" encoding="utf-8"?>
<svg width="48px" height="48px" viewBox="0 0 48 48" version="1.1" xmlns:xlink="http://www.w3.org/1999/xlink" xmlns="http://www.w3.org/2000/svg">
  <g id="qemu-launcher">
    <path d="M0 24C0 10.7452 10.7452 0 24 0C37.2548 0 48 10.7452 48 24C48 37.2548 37.2548 48 24 48C10.7452 48 0 37.2548 0 24Z" id="Ellipse" fill="#FCD5D5" fill-rule="evenodd" stroke="none" />
    <path d="M15.6522 9.95138e-07C7.00772 9.95138e-07 0 7.00772 0 15.6522C0.00569717 22.3871 4.32086 28.3643 10.7131 30.49C9.26609 26.473 8.15478 20.2675 7.48174 17.2863C7.14678 15.9652 7.34609 14.6504 7.57357 13.3263C8.0327 11.951 8.184 10.5183 8.81217 9.19409C9.77113 8.3687 9.79409 6.86609 10.7238 6.14504C10.8626 6.22748 10.9555 6.26087 11.0202 6.29217L11.1172 6.30261L11.1277 6.30261C11.2612 6.16278 9.82539 4.704 11.1558 5.28C11.208 4.51409 12.4101 5.09948 12.4278 4.42852L12.4278 4.42644C13.0122 4.91061 12.9026 4.70818 13.6904 4.61844C14.5826 4.05078 14.999 5.96452 15.3704 4.89704C16.4682 5.03583 17.6337 5.38226 18.671 5.73078C19.7155 5.95409 20.7005 6.54052 21.3997 7.34609L21.3788 7.34609L21.8911 8.01391C21.9548 8.1287 22.0174 8.2487 22.0696 8.3687C22.2762 10.0894 24.24 10.0654 25.5548 10.6873C26.6797 11.0755 28.0351 11.6661 28.1739 12.9882C27.8901 12.9277 26.7923 11.6765 25.9283 11.5513C25.4087 11.52 24.8473 11.377 24.3235 11.1871L21.289 10.6435L21.289 10.633C21.1409 10.6122 20.9843 10.5913 20.8372 10.56L20.8372 10.5704L16.5433 10.056C16.6132 10.103 16.6904 10.1666 16.7583 10.2292L21.1617 11.063L21.1617 11.0546L21.4664 11.1297L22.6977 11.399C22.9419 11.4209 23.1861 11.4595 23.3885 11.4991C24.6438 11.831 26.1287 11.7704 27.1617 12.6261C26.8894 13.128 25.3878 12.8431 24.6376 12.7784C24.5457 12.7617 24.4456 12.7513 24.3548 12.7304C24.3339 12.7304 24.3235 12.72 24.3026 12.72C23.28 12.5635 22.2365 12.553 21.2504 12.8483C21.2483 12.8483 21.2431 12.8473 21.24 12.8483C20.9009 12.9506 20.5722 13.0967 20.256 13.2783C18.8348 14.0817 17.0838 14.375 15.9026 15.5322C14.7548 16.7374 14.8174 18.4049 15.0188 19.9513L15.0668 19.9513L15.0668 20.3457C15.0856 20.4814 15.1075 20.615 15.1263 20.7475C15.7252 23.8758 17.3259 26.7464 17.8226 29.904C17.8539 30.2817 17.9061 30.7064 17.9478 31.1207C25.6164 29.9837 31.2972 23.4045 31.3043 15.6522C31.3073 7.01312 24.302 0.00298343 15.6576 0L15.6522 9.95138e-07ZM18.0689 7.54435C17.5951 7.55687 17.2278 7.72904 17.1235 8.0233C16.9565 8.49391 17.5252 9.10226 18.3955 9.39131C19.2657 9.6887 20.1078 9.54783 20.2769 9.07722C20.4438 8.60661 19.8783 7.99096 19.0017 7.69774C18.6783 7.58817 18.3537 7.53809 18.0689 7.54435L18.0689 7.54435Z" transform="translate(8.347826 8.347825)" id="Shape" fill="#353130" fill-rule="evenodd" stroke="none" />
  </g>
</svg>