<?xml version="1.0" encoding="utf-8"?>
<svg width="48px" height="48px" viewBox="0 0 48 48" version="1.1" xmlns:xlink="http://www.w3.org/1999/xlink" xmlns="http://www.w3.org/2000/svg">
  <g id="quake2">
    <path d="M24 0C37.2553 0 48 10.7447 48 24C48 37.2553 37.2553 48 24 48C10.7447 48 0 37.2553 0 24C0 10.7447 10.7447 0 24 0L24 0Z" id="Shape" fill="#FCD5D5" fill-rule="evenodd" stroke="none" />
    <path d="M5.80435 0C2.33528 2.11071 0 6.05527 0 10.5755C0 16.082 3.46261 20.7382 8.22283 22.2626L8.22283 25.9757L9.67391 32.3481L11.125 25.9757L11.125 22.7767C11.2856 22.7774 11.4462 22.7894 11.6087 22.7894C11.7712 22.7894 11.9318 22.7838 12.0924 22.7767L12.0924 25.9757L13.5435 32.3481L14.9946 25.9757L14.9946 22.2626C19.7548 20.7382 23.2174 16.0827 23.2174 10.5755C23.2174 6.05527 20.8821 2.11141 17.413 0L17.413 0.485723C19.7632 2.42366 21.2826 5.50724 21.2826 8.98237C21.2826 13.5401 18.6668 17.428 14.9946 18.9376L14.9946 13.2307C15.3028 12.74 16.0709 12.0794 16.3476 12.0001L14.9946 12.0001C12.3007 11.9994 9.64554 12.0001 6.942 12.0001C7.24512 12.0468 7.87908 12.4448 8.22283 13.2307L8.22283 18.9376C4.55061 17.4302 1.93478 13.5422 1.93478 8.98237C1.93478 5.50724 3.45423 2.42366 5.80435 0.485723L5.80435 0ZM11.6467 12.6373C11.8067 12.7867 12.0502 12.9807 12.1685 13.2307L12.1685 19.5904C11.996 19.5989 11.8213 19.6032 11.6467 19.6032C11.4721 19.6032 11.2975 19.5996 11.125 19.5904L11.125 13.2307C11.2662 13.0218 11.4047 12.815 11.6467 12.6373L11.6467 12.6373Z" transform="translate(12.392184 9.915862)" id="Shape" fill="#353130" fill-rule="evenodd" stroke="none" />
  </g>
</svg>