<?xml version="1.0" encoding="utf-8"?>
<svg width="48px" height="48px" viewBox="0 0 48 48" version="1.1" xmlns:xlink="http://www.w3.org/1999/xlink" xmlns="http://www.w3.org/2000/svg">
  <g id="quake4">
    <path d="M24 0C37.2553 0 48 10.7447 48 24C48 37.2553 37.2553 48 24 48C10.7447 48 0 37.2553 0 24C0 10.7447 10.7447 0 24 0L24 0Z" id="Shape" fill="#FCD5D5" fill-rule="evenodd" stroke="none" />
    <path d="M11.7233 32.3479C11.1371 30.6855 10.2398 28.8387 9.95801 26.8754L9.86382 22.0917C9.10353 22.0376 9.10017 21.1568 8.47781 21.0026L7.71584 21.4512C6.64773 21.1101 5.78484 20.6574 4.99596 20.08L4.93036 19.3108C4.52919 19.0328 4.17512 18.7392 3.87908 18.4267L2.86732 18.5038C1.90183 17.4844 1.5385 16.8784 1.11967 16.1846L1.46113 15.3391C-1.94166 8.26164 0.825314 2.55788 7.41391 0.0967722C0.405642 5.53893 1.0465 15.5736 9.7528 17.7994L9.87139 15.531C10.1035 14.3845 11.3465 12.6328 11.8226 11.7249C12.2464 12.5097 13.1035 14.1754 13.3532 15.3645L13.3667 17.9142C22.618 15.1734 22.8005 4.86563 15.5937 0C22.4658 2.28479 25.1335 9.8067 21.7635 15.3382L22.0923 16.1075C21.6626 16.9776 20.962 17.7198 20.3312 18.4907L19.3851 18.4267C19.089 18.717 18.7308 19.0074 18.2943 19.2977L18.2287 20.1817C17.4667 20.705 16.5298 21.1576 15.5475 21.4635L14.7594 20.9764C14.0849 21.2126 14.1463 21.8195 13.4718 21.8859L13.4474 27.1378C13.2035 28.9896 12.3062 30.4731 11.7233 32.3479L11.7233 32.3479Z" transform="translate(12.394417 9.916424)" id="Shape" fill="#353130" fill-rule="evenodd" stroke="none" />
  </g>
</svg>