<?xml version="1.0" encoding="utf-8"?>
<svg width="48px" height="48px" viewBox="0 0 48 48" version="1.1" xmlns:xlink="http://www.w3.org/1999/xlink" xmlns="http://www.w3.org/2000/svg">
  <g id="quake">
    <path d="M24 0C37.2553 0 48 10.7447 48 24C48 37.2553 37.2553 48 24 48C10.7447 48 0 37.2553 0 24C0 10.7447 10.7447 0 24 0L24 0Z" id="Shape" fill="#FCD5D5" fill-rule="evenodd" stroke="none" />
    <path d="M5.80439 1.59222e-05C2.3353 2.11071 0 6.05527 0 10.5755C0 16.8035 4.43197 21.9397 10.1577 22.6973L10.1577 25.9791L11.6088 32.3516L13.0599 25.9791L13.0599 22.6973C18.7856 21.9454 23.2176 16.807 23.2176 10.5755C23.2176 6.05527 20.8823 2.11141 17.4132 0L17.4132 0.485723C19.7633 2.42366 21.2828 5.50722 21.2828 8.98236C21.2828 14.3069 17.7143 18.7188 13.0599 19.487L13.0599 13.2307C13.3682 12.74 14.1363 12.0794 14.4129 12.0001L8.87685 12.0001C9.17996 12.0468 9.81393 12.4447 10.1577 13.2307L10.1577 19.487C5.50321 18.7188 1.9348 14.3069 1.9348 8.98236C1.9348 5.50722 3.45426 2.42366 5.80439 0.485723L5.80439 1.59222e-05Z" transform="translate(12.391367 9.908696)" id="Shape" fill="#353130" fill-rule="evenodd" stroke="none" />
  </g>
</svg>