<?xml version="1.0" encoding="utf-8"?>
<svg width="48px" height="48px" viewBox="0 0 48 48" version="1.1" xmlns:xlink="http://www.w3.org/1999/xlink" xmlns="http://www.w3.org/2000/svg">
  <g id="quake3">
    <path d="M24 0C37.2553 0 48 10.7447 48 24C48 37.2553 37.2553 48 24 48C10.7447 48 0 37.2553 0 24C0 10.7447 10.7447 0 24 0L24 0Z" id="Shape" fill="#FCD5D5" fill-rule="evenodd" stroke="none" />
    <path d="M13.4977 0.00417361C13.4977 0.00417361 12.1975 3.33078 12.1975 11.5763C12.3279 19.8261 13.3714 22.8876 13.3714 22.8876C13.3714 22.8876 14.4065 21.025 14.6716 11.4459C14.802 2.00243 13.4977 0 13.4977 0M9.2382 4.19478C9.2382 4.19478 0.128637 7.38678 0.0013315 12.1753C-0.129103 16.969 9.36864 18.2932 9.36864 18.2932L10.5384 22.9523L11.0601 16.0351C11.0601 16.0351 2.59855 16.0351 2.73316 12.3016C2.86359 8.568 9.2382 4.18643 9.2382 4.18643M17.8876 4.19478C17.8876 4.19478 24.2664 8.58469 24.3926 12.3099C24.5231 16.0435 16.0688 16.0435 16.0688 16.0435L16.5905 22.9607L17.7603 18.3016C17.7603 18.3016 27.258 16.9732 27.1307 12.1837C27.0003 7.38991 17.8907 4.19896 17.8907 4.19896" transform="translate(10.437624 12.517566)" id="Shape" fill="#353130" fill-rule="evenodd" stroke="none" />
  </g>
</svg>