<?xml version="1.0" encoding="utf-8"?>
<svg width="48px" height="48px" viewBox="0 0 48 48" version="1.1" xmlns:xlink="http://www.w3.org/1999/xlink" xmlns="http://www.w3.org/2000/svg">
  <g id="rpcs3">
    <path d="M0 24C0 10.7452 10.7452 0 24 0C37.2548 0 48 10.7452 48 24C48 37.2548 37.2548 48 24 48C10.7452 48 0 37.2548 0 24Z" id="Ellipse" fill="#FCD5D5" fill-rule="evenodd" stroke="none" />
    <path d="M0 9.95138e-06L0 2.08697L23.4783 2.08697C24.3454 2.08697 25.0435 2.78503 25.0435 3.65218L25.0435 4.69566C25.0435 5.56276 24.3454 6.26088 23.4783 6.26088L0 6.26088L0 8.34784L23.4783 8.34784C24.3454 8.34784 25.0435 9.0459 25.0435 9.91305L25.0435 10.9565C25.0435 11.8237 24.3454 12.5217 23.4783 12.5217L0 12.5217L0 14.6087L25.0435 14.6087C28.1739 14.6087 29.2174 13.2125 29.2174 11.4783L29.2174 9.3913C29.2174 7.82504 27.6522 7.30435 27.6522 7.30435C27.6522 7.30435 29.2174 6.78159 29.2174 5.21739L29.2174 3.13043C29.2174 1.39617 28.1739 0 25.0435 0L0 9.95138e-06Z" transform="translate(9.391304 16.695642)" id="Shape" fill="#353130" fill-rule="evenodd" stroke="none" />
  </g>
</svg>