<?xml version="1.0" encoding="utf-8"?>
<svg width="48px" height="48px" viewBox="0 0 48 48" version="1.1" xmlns:xlink="http://www.w3.org/1999/xlink" xmlns="http://www.w3.org/2000/svg">
  <g id="spotify-client">
    <path d="M0 24C0 10.7447 10.7447 0 24 0C37.2553 0 48 10.7447 48 24C48 37.2553 37.2553 48 24 48C10.7447 48 0 37.2553 0 24L0 24Z" id="Shape" fill="#FCD5D5" fill-rule="evenodd" stroke="none" />
    <path d="M10.1668 0.00010847C7.08751 0.00010847 4.03179 0.4511 1.09544 1.3391C0.285705 1.58327 -0.174678 2.45687 0.0621613 3.28748C0.302161 4.11809 1.14988 4.59548 1.95962 4.35131C4.61527 3.55305 7.37653 3.1366 10.1668 3.1366C15.3299 3.1366 20.3968 4.55051 24.8287 7.22286C25.0677 7.37312 25.3362 7.43889 25.597 7.43889L25.593 7.43685C26.1178 7.43685 26.6349 7.16828 26.9197 6.67054C27.3476 5.91819 27.1019 4.95663 26.3736 4.51628C21.4775 1.55906 15.8741 0 10.1673 0L10.1668 0.00010847ZM10.1587 6.49336C7.46858 6.49336 4.81856 6.92012 2.27352 7.75493C1.55247 7.99493 1.1522 8.79123 1.38493 9.53208C1.61659 10.2771 2.39116 10.683 3.11116 10.4431C5.38386 9.69804 7.75558 9.31602 10.1587 9.31602C14.4829 9.31602 18.7032 10.5572 22.3528 12.903C22.5803 13.0459 22.832 13.1149 23.0804 13.1149L23.0804 13.117C23.5353 13.117 23.9832 12.8845 24.2441 12.4566C24.6469 11.792 24.4518 10.9204 23.8079 10.5083C19.7227 7.88078 15.003 6.49327 10.1592 6.49327L10.1587 6.49336ZM10.1607 12.9234C7.85149 12.9234 5.59288 13.3345 3.44123 14.1401C2.81096 14.3801 2.48502 15.1021 2.71772 15.7502C2.95041 16.4013 3.64949 16.735 4.28502 16.4981C6.16328 15.7907 8.14151 15.4322 10.1627 15.4322C13.6563 15.4322 17.0229 16.5123 19.8903 18.5565C20.1016 18.7074 20.347 18.7803 20.5833 18.7807C20.9687 18.78 21.3495 18.5886 21.586 18.2386C21.969 17.6678 21.8345 16.8853 21.2762 16.494C18.0028 14.1566 14.1562 12.9233 10.1611 12.9233L10.1607 12.9234Z" transform="translate(10.435616 14.610674)" id="Shape" fill="#353130" fill-rule="evenodd" stroke="none" />
  </g>
</svg>