<?xml version="1.0" encoding="utf-8"?>
<svg width="48px" height="48px" viewBox="0 0 48 48" version="1.1" xmlns:xlink="http://www.w3.org/1999/xlink" xmlns="http://www.w3.org/2000/svg">
  <g id="telegram">
    <path d="M0 24C0 10.7452 10.7452 0 24 0C37.2548 0 48 10.7452 48 24C48 37.2548 37.2548 48 24 48C10.7452 48 0 37.2548 0 24Z" id="Ellipse" fill="#FCD5D5" fill-rule="evenodd" stroke="none" />
    <path d="M1.66342 9.77032C1.66342 9.77032 13.6634 4.84546 17.8253 3.11135C19.4206 2.41771 24.831 0.19806 24.831 0.19806C24.831 0.19806 27.3282 -0.773039 27.1201 1.58534C27.0507 2.55644 26.4958 5.95529 25.9409 9.63159C25.1085 14.8339 24.2068 20.5218 24.2068 20.5218C24.2068 20.5218 24.068 22.1171 22.8888 22.3946C21.7097 22.6721 19.7675 21.4235 19.4206 21.146C19.1432 20.9379 14.2183 17.8166 12.4149 16.2905C11.9293 15.8744 11.3744 15.042 12.4842 14.0709C14.9813 11.7819 17.964 8.93794 19.7675 7.13448C20.5998 6.30211 21.4322 4.35991 17.964 6.71829C13.0391 10.1171 8.18365 13.3079 8.18365 13.3079C8.18365 13.3079 7.07382 14.0015 4.9929 13.3773C2.91197 12.753 0.484224 11.9206 0.484224 11.9206C0.484224 11.9206 -1.18051 10.8801 1.66342 9.77032L1.66342 9.77032Z" transform="translate(8.32502 14.021595)" id="path5" fill="#353130" fill-rule="evenodd" stroke="none" />
  </g>
</svg>