<?xml version="1.0" encoding="utf-8"?>
<svg width="48px" height="48px" viewBox="0 0 48 48" version="1.1" xmlns:xlink="http://www.w3.org/1999/xlink" xmlns="http://www.w3.org/2000/svg">
  <g id="virtualbox">
    <path d="M0 24C0 10.7452 10.7452 0 24 0C37.2548 0 48 10.7452 48 24C48 37.2548 37.2548 48 24 48C10.7452 48 0 37.2548 0 24Z" id="Ellipse" fill="#FCD5D5" fill-rule="evenodd" stroke="none" />
    <path d="M1.04348 0C0 0 0 0 0 1.04348L0 24C0 25.0268 0 25.0435 1.04348 25.0435L24 25.0435C25.0435 25.0435 25.0435 25.0435 25.0435 24L25.0435 1.04348C25.0435 0 25.0435 0 24 0M2.08696 2.08696L12.457 2.05461C11.1245 7.15826 9.74191 12.2494 8.38539 17.3437C6.26609 11.4741 8.35304 17.3155 6.26609 11.4741C5.22261 11.4741 3.13565 11.4741 2.09217 11.4741M12.6532 2.05148L22.9576 2.08383L22.9576 10.4317L19.8271 10.4317C17.1569 2.45844 19.8271 10.4317 17.1527 2.27896C16.415 5.03061 15.673 7.78122 14.9353 10.5287C14.1892 7.69983 13.4275 4.87096 12.6522 2.05044M12.5583 8.27896C13.3649 11.2216 14.1558 14.1694 14.9384 17.1162C15.672 14.3447 16.4181 11.5722 17.1558 8.8007C18.7868 12.5343 17.1235 8.784 18.7868 12.5343C20.495 12.5343 21.2525 12.5343 22.9607 12.5343L22.9607 22.969L8.75165 22.969C9.816 18.0292 11.2539 13.1739 12.5583 8.29774M2.09217 13.5673L5.22261 13.5673C8.35304 22.9586 5.22261 13.5673 8.35304 22.9586L2.09634 22.9586" transform="translate(11.478261 11.478261)" id="Shape" fill="#353130" fill-rule="evenodd" stroke="none" />
  </g>
</svg>